<svg version="1.1" id="Layer_1" xmlns="http://www.w3.org/2000/svg" xmlns:xlink="http://www.w3.org/1999/xlink" x="0px" y="0px"
	 viewBox="0 0 242.667 36.333" style="enable-background:new 0 0 242.667 36.333;"
	 xml:space="preserve">
<style type="text/css">
	.st0{fill:none;stroke:red;stroke-miterlimit:10;}
	.st0{
					stroke-dasharray: 500;
					stroke-dashoffset:0;
					-webkit-animation: dash 8s ease-in-out infinite alternate;
					-o-animation: dash 8s ease-in-out infinite alternate;
					-moz-animation: dash 8s ease-in-out infinite alternate;
					animation: dash 8s ease-in-out infinite alternate;

				}

				@-webkit-keyframes dash{
					from{
						stroke-dashoffset: 500;
					}
					to {
					stroke-dashoffset:0;
					stroke:gray;
					transition: 2s;

					}
				}
</style>
<path class="st0" d="M127.802,24.578c1.463-6.809,3.014-13.602,4.346-20.437c0.521-2.672,2.326-2.21,4.126-2.341
	c2.169-0.158,3.268,0.454,3.694,2.834c1.283,7.171,2.842,14.292,4.393,21.919c1.563-6.878,3.406-13.197,4.328-19.648
	c0.66-4.619,2.556-6.009,7.291-4.689c-2.692,10.301-5.124,20.023-7.793,30.347c-0.948,3.083-1.12,2.677-5.167,2.408
	c-1.911-0.127-2.489-1.02-2.866-2.907c-1.362-6.818-2.828-13.616-4.483-21.51c-1.775,7.691-3.367,14.284-4.789,20.914
	c-0.53,2.472-1.205,3.503-4.799,3.503c-3.469,0-3.146-1.2-3.687-3.52c-2.032-8.714-4.224-17.392-6.123-26.134
	c-0.195-0.896-2.144-3.184,0.656-3.347c1.889-0.11,4.796-1.677,5.467,2.162c1.143,6.54,2.467,13.048,3.716,19.57
	C126.3,25.105,127.115,30.427,127.802,24.578z"/>
<path class="st0" d="M188.004,10.467c0,7.309,0.068,13.705-0.044,20.097c-0.032,1.797,1.28,4.378-2.658,4.387
	c-3.62,0.009-3.011-2.115-3.011-4.218c0-8.154-0.073-16.309,0.066-24.461c0.026-1.509-1.353-4.12,1.607-4.344
	c2.437-0.185,5.16-1.019,6.883,2.242c3.691,6.985,7.732,13.784,11.444,20.33c0-6.113,0.008-12.493-0.005-18.873
	c-0.004-1.989-0.42-3.814,2.82-3.92c3.282-0.108,2.907,1.69,2.903,3.704c-0.016,8.487,0.061,16.975-0.077,25.459
	c-0.021,1.318,1.378,3.746-1.43,3.881c-2.098,0.101-4.437,0.972-5.988-1.996C196.723,25.499,192.524,18.454,188.004,10.467z"/>
<path class="st0" d="M93.94,14.024c0,2.998,0.176,6.008-0.034,8.992c-0.539,7.659-5.277,11.819-13.213,11.819
	C73.01,34.833,68.488,30.8,68.115,23.079c-0.297-6.15,0.048-12.329-0.181-18.484c-0.103-2.774,1.254-2.761,3.303-2.826
	c2.179-0.068,2.866,0.604,2.812,2.802c-0.141,5.66-0.191,11.331-0.004,16.989c0.189,5.736,3.146,8.829,7.659,8.316
	c4.902-0.557,6.074-4.237,6.234-8.255c0.226-5.655,0.211-11.331-0.005-16.986c-0.104-2.721,1.151-2.84,3.264-2.868
	c2.114-0.029,2.978,0.506,2.849,2.764c-0.179,3.155-0.045,6.328-0.045,9.493C93.981,14.024,93.96,14.024,93.94,14.024z"/>
<path class="st0" d="M35.999,18.688c0-4.499,0.125-9.004-0.05-13.496c-0.094-2.399,0.782-3.33,3.097-3.291
	c2.831,0.048,5.67-0.145,8.496-0.017c6.302,0.285,10.104,3.683,10.441,9.15c0.388,6.299-2.902,11.581-9.151,11.322
	c-7.635-0.315-7.362,3.615-6.802,8.622c0.324,2.894-0.357,4.266-3.685,3.954c-2.102-0.197-2.402-0.993-2.371-2.747
	C36.051,27.688,35.999,23.187,35.999,18.688z"/>
<path class="st0" d="M18.527,34.715C11.637,34.971,5.92,32.66,3.18,26.008C0.396,19.249,0.983,12.514,6.095,6.932
	c5.019-5.48,11.622-5.868,18.453-4.598c1.49,0.277,2.765,0.788,2.044,3.021c-0.74,2.289-1.733,2.549-3.925,1.935
	c-4.459-1.248-8.734-0.468-11.838,3.145c-3.169,3.69-3.614,8.086-1.921,12.656c1.895,5.117,6.801,7.706,13.018,6.549
	c2.217-0.413,4.151-1.477,4.557,2.035c0.4,3.453-2.365,2.919-3.991,2.956C17.099,34.758,19.858,34.715,18.527,34.715z"/>
<path class="st0" d="M170,18.816c0,4.333-0.127,8.67,0.05,12.996c0.097,2.374-0.593,3.124-3.033,3.112
	c-2.387-0.012-3.109-0.655-3.072-3.076c0.137-8.996,0.132-17.997,0.003-26.994c-0.034-2.368,0.595-3.122,3.035-3.11
	c2.386,0.012,3.166,0.65,3.07,3.077C169.869,9.479,170,14.15,170,18.816z"/>
<path class="st0" d="M239.815,21.987c0.002,1.867-0.874,2.573-2.777,2.61c-2.027,0.039-2.06-1.207-2.126-2.563
	c-0.291-5.972-0.117-11.985-0.871-17.915c-0.489-3.848,0.257-1.727,3.686-2.294c3.356-0.555,3.199-0.805,2.658,2.714
	c-0.403,2.621-0.477,15.291-0.595,17.946"/>
<path class="st0" d="M238.147,34.841c-3.092,0.017-4.3-1.357-4.393-3.65c-0.094-2.343,1.277-3.901,3.516-3.945
	c2.172-0.043,3.688,1.232,3.741,3.706C241.063,33.375,239.794,34.549,238.147,34.841z"/>
<path class="st0" d="M43.244,7.872c2.965-1.603,8.12,0.394,8.294,3.941c0.151,3.075-2.313,4.82-5.862,5.209
	C39.74,17.672,39.887,9.672,43.244,7.872"/>
</svg>
