<svg version="1.1" id="Layer_1" xmlns="http://www.w3.org/2000/svg" xmlns:xlink="http://www.w3.org/1999/xlink" x="0px" y="0px"
	  viewBox="0 0 153 35.625" style="enable-background:new 0 0 153 35.625;" xml:space="preserve">
<style type="text/css">
	.st0{fill:none;stroke:white;stroke-width:1;stroke-miterlimit:5;}

					.st0{
					stroke-dasharray: 500;
					stroke-dashoffset:0;
					-webkit-animation: dash 8s ease-in-out infinite alternate;
					-o-animation: dash 8s ease-in-out infinite alternate;
					-moz-animation: dash 8s ease-in-out infinite alternate;
					animation: dash 8s ease-in-out infinite alternate;

				}

				@-webkit-keyframes dash{
					from{
						stroke-dashoffset: 500;
					}
					to {
					stroke-dashoffset:0;
					stroke:blue;
					transition: 2s;

					}
				}
</style>
<path class="st0" d="M127.66,9.889c1.886,8.583,3.549,16.153,5.192,23.634c2.474,0,4.55,0,6.615,0
	c2.876-10.901,5.666-21.475,8.463-32.077c-4.388-1.499-6.472-0.42-7.181,4.348c-0.94,6.327-2.739,12.526-4.384,19.718
	c-1.845-8.776-3.478-16.546-5.125-24.384c-2.273,0-4.22,0-6.402,0c-1.789,7.562-3.544,14.982-5.299,22.402
	c-0.333-0.025-0.666-0.05-0.999-0.076c-1.585-7.516-3.169-15.031-4.696-22.273c-2.404,0-4.184,0-6.294,0
	c1.32,5.651,2.535,10.98,3.815,16.294c1.309,5.434,2.682,10.852,4.004,16.186c2.451,0,4.409,0,6.586,0
	C123.796,25.991,125.601,18.469,127.66,9.889z M7.229,33.716c9.77,0.052,19.533,1.935,25.552-7.832
	c3.544-5.752,3.201-14.681-0.87-19.268C25.058-1.105,16.083,0.93,7.229,1.457C7.229,12.336,7.229,22.726,7.229,33.716z
	 M67.96,33.342c-1.046-3.581-1.89-6.968-3.056-10.24c-0.532-1.493-1.699-2.759-2.568-4.112c7.056-7.565,5.856-16.017-2.744-17.575
	c-4.606-0.834-9.488-0.148-14.262-0.148c0,11.202,0,21.784,0,32.395c1.927,0,3.537,0,5.623,0c0-4.289,0-8.385,0-12.439
	c6.611-0.453,7.65,0.208,9.088,6.796C60.974,32.286,62.268,35.463,67.96,33.342z M84.483,25.032
	c0.692-0.046,1.523-0.037,2.331-0.167c5.07-0.81,8.561,0.299,9.379,6.266c0.599,4.373,4.142,2.421,7.258,2.523
	c-2.878-9.015-5.652-17.659-8.395-26.312c-2.186-6.898-2.169-6.903-9.855-6.031c-3.333,10.593-6.704,21.306-10.065,31.99
	C83.708,36.504,81.631,28.209,84.483,25.032z"/>
<path class="st0" d="M127.66,9.889c-2.059,8.581-3.863,16.103-5.703,23.772c-2.177,0-4.135,0-6.586,0
	c-1.323-5.334-2.696-10.753-4.004-16.186c-1.28-5.314-2.495-10.643-3.815-16.294c2.11,0,3.889,0,6.294,0
	c1.527,7.242,3.112,14.758,4.696,22.273c0.333,0.025,0.666,0.05,0.999,0.076c1.755-7.42,3.51-14.84,5.299-22.402
	c2.182,0,4.128,0,6.402,0c1.647,7.837,3.281,15.607,5.125,24.384c1.644-7.192,3.443-13.391,4.384-19.718
	c0.709-4.768,2.793-5.847,7.181-4.348c-2.797,10.602-5.587,21.176-8.463,32.077c-2.065,0-4.14,0-6.615,0
	C131.208,26.042,129.545,18.472,127.66,9.889z"/>
<path class="st0" d="M7.229,33.716c0-10.99,0-21.38,0-32.259c8.853-0.527,17.829-2.562,24.682,5.159
	c4.071,4.587,4.414,13.516,0.87,19.268C26.763,35.651,16.999,33.768,7.229,33.716z M13.207,28.859
	c5.896,0.4,11.111,0.203,13.867-5.336c2.335-4.692,2.61-9.706-0.699-14.094c-3.339-4.428-8.144-4.175-13.168-3.409
	C13.207,13.733,13.207,21.114,13.207,28.859z"/>
<path class="st0" d="M67.96,33.342c-5.692,2.121-6.987-1.056-7.919-5.323c-1.439-6.587-2.477-7.249-9.088-6.796
	c0,4.055,0,8.15,0,12.439c-2.086,0-3.696,0-5.623,0c0-10.611,0-21.193,0-32.395c4.774,0,9.656-0.686,14.262,0.148
	c8.6,1.557,9.8,10.01,2.744,17.575c0.869,1.353,2.036,2.619,2.568,4.112C66.07,26.374,66.914,29.761,67.96,33.342z M51.248,17.917
	c3.62-1.779,6.632-2.738,8.867-4.62c0.871-0.733,0.705-4.539-0.233-5.212c-2.258-1.621-5.25-2.218-8.634-3.486
	C51.248,9.305,51.248,12.55,51.248,17.917z"/>
<path class="st0" d="M84.483,25.032c-2.852,3.176-0.774,11.472-9.346,8.269c3.362-10.684,6.732-21.397,10.065-31.99
	c7.686-0.872,7.669-0.867,9.855,6.031c2.743,8.654,5.517,17.297,8.395,26.312c-3.117-0.102-6.659,1.85-7.258-2.523
	c-0.818-5.967-4.309-7.077-9.379-6.266C86.006,24.995,85.175,24.986,84.483,25.032z M92.893,20.004
	c-1.263-4.283-2.346-7.952-3.429-11.622c-0.34,0.022-0.681,0.044-1.021,0.067c-1.012,3.751-2.025,7.503-3.118,11.555
	C88.067,20.004,90.155,20.004,92.893,20.004z"/>
<path class="st0" d="M13.207,28.859c0-7.745,0-15.126,0-22.838c5.023-0.766,9.829-1.019,13.168,3.409
	c3.308,4.387,3.034,9.401,0.699,14.094C24.317,29.061,19.102,29.258,13.207,28.859z"/>
<path class="st0" d="M51.248,17.917c0-5.366,0-8.612,0-13.318c3.384,1.268,6.376,1.865,8.634,3.486
	c0.938,0.673,1.103,4.479,0.233,5.212C57.88,15.178,54.868,16.137,51.248,17.917z"/>
<path class="st0" d="M92.893,20.004c-2.738,0-4.826,0-7.568,0c1.094-4.053,2.106-7.804,3.118-11.555
	c0.34-0.022,0.681-0.044,1.021-0.067C90.547,12.052,91.63,15.721,92.893,20.004z"/>
</svg>
