<?xml version="1.0" encoding="utf-8"?>
<!-- Generator: Adobe Illustrator 19.0.0, SVG Export Plug-In . SVG Version: 6.00 Build 0)  -->
<svg version="1.1" id="Layer_1" xmlns="http://www.w3.org/2000/svg" xmlns:xlink="http://www.w3.org/1999/xlink" x="0px" y="0px"
	 width="429px" height="51px" viewBox="0 0 429 51" style="enable-background:new 0 0 429 51;" xml:space="preserve">
<style type="text/css">
	.st0{fill:none;stroke:#000000;stroke-width:0.5;stroke-miterlimit:10;}
</style>
<g>
	<path class="st0" d="M302.162,34.075c1.797-9.972,3.57-19.949,5.42-29.911c0.228-1.225,0.391-2.847,2.212-2.832
		c2.975,0.025,5.95,0.191,8.924,0.297c-0.052,0.783,0.016,1.597-0.173,2.345c-3.71,14.66-7.484,29.303-11.141,43.976
		c-0.469,1.883-1.45,2.382-3.162,2.322c-1.829-0.065-3.673-0.143-5.49,0.017c-2.814,0.248-4.079-0.684-4.585-3.704
		c-1.659-9.906-3.688-19.75-5.812-30.861c-2.365,10.985-4.705,20.725-6.462,30.57c-0.704,3.942-2.829,4.461-5.834,3.913
		c-2.906-0.53-6.866,2.215-8.067-3.656c-2.862-13.99-6.358-27.855-9.788-41.723c-0.719-2.906-0.218-3.308,2.823-3.586
		c1.123-0.103,1.617-0.008,2.489-0.008c4.947,0,6.169,1.551,6.804,5.813c1.464,9.831,3.339,19.601,5.7,29.401
		c2.095-10.429,4.499-20.81,6.158-31.308c0.257-6.049-0.74-3.464,7.459-3.846c7.309-0.341,5.35-0.497,5.926,3.834
		c1.291,9.706,3.255,19.323,4.945,28.977c0.256,0.413,0.466,1.194,0.721,1.199C301.871,35.318,301.789,34.463,302.162,34.075z"/>
	<path class="st0" d="M356.291,24.298c0.021,7.49-0.169,14.989,0.139,22.467c0.193,4.692-2.922,3.385-5.301,3.463
		c-2.368,0.078-4.931,0.837-4.86-3.408c0.231-13.979,0.154-27.964,0.029-41.945c-0.025-2.822,0.898-3.405,3.642-3.743
		c6.583-0.813,10.553,1.219,13.515,7.56c4.042,8.655,9.256,16.771,13.434,25.493c-0.879-9.645-0.223-19.227-0.644-28.774
		c-0.199-4.498,2.203-4.131,5.174-4.211c3.185-0.085,5.151,0.034,5.051,4.338c-0.313,13.476-0.188,26.964-0.059,40.446
		c0.029,3.019-0.521,4.186-3.985,4.436c-5.522,0.398-8.66-1.323-11.105-6.486c-4.404-9.3-10.13-17.952-14.085-27.506
		C355.814,15.008,356.291,21.426,356.291,24.298z"/>
	<path class="st0" d="M228.128,27.359c6.659,5.303,6.338,13.561,8.918,20.588c0.188,0.512,0.169,1.416-0.154,1.747
		c-1.866,1.907-10.76-0.262-11.539-2.844c-0.958-3.177-1.629-6.439-2.557-9.626c-0.707-2.427-1.734-4.698-4.333-5.756
		c-4.351-1.772-6.432-0.435-6.46,4.186c-0.015,2.494-0.003,4.988-0.003,7.482c-0.001,7.347,0.001,7.308-7.826,6.893
		c-1.805-0.096-3.21-0.089-3.199-2.563c0.068-14.298,0.053-28.596,0.005-42.894c-0.006-1.895,0.736-2.573,2.586-2.779
		c6.617-0.735,13.189-1.238,19.843-0.112c6.105,1.034,10.799,3.696,12.212,10.04c1.378,6.191-0.982,11.054-6.355,14.448
		C228.871,26.419,228.596,26.861,228.128,27.359z"/>
	<path class="st0" d="M76.201,49.478c4.613-15.302,9.238-30.56,13.788-45.84c0.565-1.896,1.54-2.542,3.524-2.69
		c11.282-0.844,11.303-0.911,14.651,9.866c3.653,11.756,7.189,23.549,10.918,35.281c0.908,2.857,0.893,4.047-2.75,4.001
		c-7.799-0.098-7.749,0.102-10.01-7.304c-0.601-1.968-0.352-5.18-2.535-5.498c-4.058-0.592-8.306-0.333-12.415,0.121
		c-1.389,0.154-1.266,2.511-1.655,3.927C87.024,51.137,87.028,51.138,76.201,49.478z"/>
	<path class="st0" d="M162,25.538c0-6.831,0.179-13.668-0.076-20.489c-0.127-3.386,1.076-4.209,4.256-4.115
		c7.158,0.211,14.333,0.26,21.486-0.016c3.558-0.137,4.543,0.998,4.445,4.471c-0.089,3.125-0.336,5.093-4.222,4.674
		c-2.964-0.319-6.031,0.249-8.98-0.134c-4.786-0.622-6.287,0.968-6.088,5.896c0.162,4.025,0.952,5.731,5.227,5.245
		c3.125-0.355,6.339,0.132,9.484-0.119c3.822-0.304,3.355,2.177,3.32,4.512c-0.034,2.26,0.647,4.834-3.243,4.588
		c-3.816-0.241-7.664,0.059-11.49-0.087c-2.378-0.09-3.071,0.771-3.179,3.138C172.576,41.004,172.47,41,180.326,41
		c2.666,0,5.356,0.229,7.991-0.056c3.65-0.394,4.812,0.748,4.847,4.596c0.036,4-1.418,4.655-4.924,4.534
		c-7.155-0.247-14.339-0.346-21.483,0.03c-4.172,0.219-4.991-1.335-4.832-5.077C162.199,38.541,162,32.035,162,25.538z"/>
	<path class="st0" d="M1.001,25.709C1,19.056,1.093,12.402,0.954,5.753C0.9,3.189,1.429,1.931,4.348,1.635
		C10.994,0.964,17.6,0.409,24.174,1.974c6.968,1.659,11.18,6.405,11.784,13.092c0.61,6.75-2.913,12.887-9.107,15.701
		c-3.371,1.532-6.979,2.482-10.646,2.153c-3.736-0.334-4.631,1.221-4.243,4.531c0.212,1.804,0.037,3.654,0.037,5.484
		c-0.001,7.093-2.08,8.605-9.137,7.1c-2.315-0.494-1.833-1.997-1.842-3.372C0.978,39.678,1.001,32.693,1.001,25.709z"/>
	<path class="st0" d="M136.979,21.91c2.39-5.798,4.593-10.395,6.173-15.196c1.45-4.408,3.732-5.283,8.606-5.765
		c1.825-0.18,3.558,0.049,6.171,0.049c-4.082,7.278-7.6,14.023-11.574,20.488c-3.244,5.276-5.169,10.687-4.386,16.939
		c0.205,1.639,0.031,3.326,0.031,4.991c-0.002,6.089-3.881,8.694-9.628,6.51c-0.678-0.258-1.191-0.511-1.272-1.279
		c-0.035-0.33-0.134-0.677-0.075-0.991c3.208-16.976-6.516-29.883-13.692-43.594c-0.376-0.719-0.641-1.496-1.29-3.031
		c3.801,0,7.173,0.001,10.546,0c2.283-0.001,2.453,1.998,3.069,3.42C132.005,9.869,134.237,15.339,136.979,21.91z"/>
	<path class="st0" d="M43,25.581c-0.001-6.822,0.317-13.664-0.1-20.461c-0.346-5.641,3.425-3.824,6.196-4.126
		c3.233-0.353,5.158,0.056,5.017,4.319c-0.347,10.472,0.018,20.965-0.189,31.444c-0.066,3.358,1.046,4.346,4.258,4.155
		c3.979-0.237,7.988,0.055,11.976-0.084c4.036-0.14,2.881,2.763,2.946,4.843c0.063,2.018,0.773,4.446-2.879,4.374
		c-7.984-0.158-15.975-0.149-23.959,0.009c-2.74,0.054-3.354-1.02-3.309-3.507C43.083,39.56,43.001,32.57,43,25.581z"/>
	<path class="st0" d="M336.354,25.605c0,6.977-0.097,13.955,0.049,20.929c0.056,2.663-0.532,3.777-3.523,3.808
		c-7.528,0.078-7.526,0.245-7.526-7.235c0-12.624,0.228-25.255-0.109-37.87c-0.14-5.233,3.115-3.885,5.829-3.958
		c2.711-0.074,5.668-0.906,5.382,3.901C336.053,11.966,336.354,18.794,336.354,25.605z"/>
	<path class="st0" d="M426.532,11.115c-0.326,6.311-0.793,12.619-0.915,18.934c-0.055,2.853-1.077,3.776-3.835,3.562
		c-2.325-0.18-4.468,0.416-4.568-3.343c-0.239-8.968-0.933-17.926-1.547-26.881c-0.156-2.283,0.808-2.972,2.883-2.842
		c1.327,0.084,2.676,0.129,3.994-0.01c3.108-0.326,4.71,0.557,4.173,4.093c-0.321,2.115-0.059,4.319-0.059,6.483
		C426.617,11.114,426.575,11.114,426.532,11.115z"/>
	<path class="st0" d="M421.592,37.562c3.342,0.232,5.534,2.373,5.819,6.232c0.273,3.699-2.785,6.882-6.431,6.726
		c-3.906-0.167-6.125-2.405-6.431-6.256C414.252,40.542,417.241,37.57,421.592,37.562z"/>
	<path class="st0" d="M211.944,16.176c0.421-3.311-1.704-7.698,4.523-7.247c5.544,0.401,8.513,2.503,8.523,6.933
		c0.01,4.409-3.373,6.857-8.936,7.2C209.339,23.477,213.043,18.432,211.944,16.176z"/>
	<path class="st0" d="M97.538,9.229c2.02,7.215,3.66,13.072,5.282,18.867c-0.359,0.339-0.557,0.697-0.784,0.717
		c-9.816,0.84-9.787,0.844-7.227-8.415C95.688,17.214,96.384,13.98,97.538,9.229z"/>
	<path class="st0" d="M11.999,16.975c-0.002-0.331-0.079-0.685,0.01-0.991c0.685-2.344-1.938-6.222,2.669-6.726
		c3.897-0.426,7.845,0.108,9.686,4.331c1.573,3.608,0.642,6.837-2.566,9.227c-1.939,1.444-4.29,1.669-6.606,1.85
		c-2.271,0.178-3.388-0.835-3.212-3.218C12.09,19.965,12.001,18.467,11.999,16.975z"/>
</g>
</svg>
